<svg width="1437" height="403" viewBox="0 0 1437 403" fill="none" xmlns="http://www.w3.org/2000/svg">
<g clip-path="url(#clip0_874_46)">
<path d="M628.3 204.55C623.54 201.69 618.58 200.11 613.42 199.83V198.41C618.15 197.27 622.44 195.4 626.27 192.8C630.11 190.2 633.16 186.8 635.43 182.61C637.7 178.42 638.84 173.37 638.84 167.45C638.84 160.25 637.1 153.81 633.62 148.13C630.14 142.45 624.91 137.96 617.92 134.67C610.94 131.38 602.19 129.73 591.68 129.73H536V275.18H594.88C606.01 275.18 615.24 273.45 622.58 270C629.92 266.54 635.41 261.82 639.06 255.83C642.71 249.84 644.53 243.08 644.53 235.55C644.53 228.02 643.01 221.87 639.99 216.66C636.96 211.45 633.07 207.42 628.31 204.55H628.3ZM562.35 151.46H588.98C596.75 151.46 602.6 153.28 606.56 156.93C610.51 160.58 612.49 165.22 612.49 170.85C612.49 175.11 611.44 178.79 609.33 181.89C607.22 184.99 604.35 187.38 600.7 189.06C597.05 190.74 592.96 191.58 588.41 191.58H562.34V151.45L562.35 151.46ZM611.39 247.66C607.15 251.33 600.25 253.16 590.69 253.16H562.35V210.55H591.4C596.84 210.55 601.53 211.56 605.46 213.57C609.39 215.58 612.42 218.33 614.55 221.81C616.68 225.29 617.75 229.19 617.75 233.49C617.75 239.27 615.63 243.99 611.39 247.66Z" fill="white"/>
<path d="M719.86 229.3C719.86 234.84 718.71 239.45 716.42 243.11C714.12 246.78 711.2 249.54 707.65 251.38C704.1 253.23 700.43 254.15 696.64 254.15C690.48 254.15 685.51 252.11 681.73 248.04C677.94 243.97 676.05 238.48 676.05 231.56V166.08H650.34V235.54C650.34 244.25 651.88 251.67 654.96 257.81C658.04 263.94 662.31 268.61 667.78 271.8C673.25 275 679.56 276.59 686.71 276.59C694.9 276.59 701.8 274.65 707.41 270.77C713.02 266.89 717.06 261.89 719.52 255.78H720.66V275.17H745.59V166.08H719.88V229.29L719.86 229.3Z" fill="white"/>
<path d="M813.87 212.96L795.26 208.98C789.72 207.7 785.75 206.07 783.36 204.08C780.97 202.09 779.8 199.51 779.84 196.34C779.79 192.65 781.58 189.64 785.2 187.32C788.82 185 793.31 183.84 798.66 183.84C802.64 183.84 806 184.48 808.75 185.76C811.5 187.04 813.69 188.72 815.32 190.8C816.95 192.88 818.1 195.11 818.76 197.48L842.2 194.92C840.45 185.64 835.89 178.28 828.53 172.83C821.17 167.39 811.09 164.66 798.31 164.66C789.6 164.66 781.91 166.02 775.26 168.74C768.61 171.46 763.42 175.3 759.71 180.25C755.99 185.2 754.16 191.03 754.21 197.76C754.16 205.71 756.65 212.28 761.67 217.47C766.69 222.66 774.43 226.34 784.89 228.51L803.5 232.42C808.52 233.51 812.22 235.07 814.62 237.11C817.01 239.15 818.21 241.73 818.21 244.85C818.21 248.54 816.35 251.64 812.63 254.15C808.91 256.66 804 257.91 797.89 257.91C791.78 257.91 787.17 256.66 783.47 254.15C779.78 251.64 777.36 247.92 776.23 243L751.16 245.42C752.72 255.46 757.58 263.28 765.72 268.89C773.86 274.5 784.61 277.31 797.96 277.31C807.05 277.31 815.1 275.84 822.11 272.91C829.12 269.97 834.6 265.89 838.55 260.66C842.5 255.43 844.5 249.38 844.55 242.51C844.5 234.7 841.96 228.38 836.92 223.55C831.88 218.72 824.19 215.19 813.87 212.97V212.96Z" fill="white"/>
<path d="M875.5 166.09H849.79V275.18H875.5V166.09Z" fill="white"/>
<path d="M862.71 122.69C858.64 122.69 855.13 124.05 852.2 126.77C849.26 129.49 847.8 132.77 847.8 136.61C847.8 140.45 849.27 143.74 852.2 146.48C855.14 149.23 858.64 150.6 862.71 150.6C866.78 150.6 870.34 149.24 873.26 146.52C876.17 143.8 877.63 140.52 877.63 136.68C877.63 132.84 876.17 129.55 873.26 126.81C870.35 124.06 866.83 122.69 862.71 122.69Z" fill="white"/>
<path d="M964.01 169.5C958.4 166.28 951.83 164.67 944.3 164.67C936.16 164.67 929.33 166.47 923.81 170.07C918.29 173.67 914.28 178.52 911.77 184.63H910.49V166.09H885.92V275.18H911.63V211.26C911.63 206 912.61 201.53 914.58 197.84C916.54 194.15 919.27 191.32 922.75 189.35C926.23 187.39 930.22 186.4 934.72 186.4C941.35 186.4 946.55 188.46 950.31 192.58C954.07 196.7 955.96 202.41 955.96 209.7V275.18H981.67V205.72C981.72 197.01 980.19 189.6 977.09 183.49C973.99 177.38 969.63 172.72 964.02 169.5H964.01Z" fill="white"/>
<path d="M1073.79 177.88C1069.17 173.38 1063.87 170.06 1057.88 167.9C1051.89 165.75 1045.53 164.67 1038.81 164.67C1028.39 164.67 1019.33 167.05 1011.61 171.81C1003.89 176.57 997.89 183.2 993.61 191.7C989.32 200.2 987.18 210.06 987.18 221.28C987.18 232.5 989.31 242.6 993.57 251C997.83 259.4 1003.93 265.89 1011.86 270.46C1019.79 275.03 1029.23 277.31 1040.16 277.31C1048.63 277.31 1056.16 276.02 1062.74 273.44C1069.32 270.86 1074.73 267.21 1078.97 262.5C1083.21 257.79 1086.08 252.26 1087.6 245.92L1063.59 243.22C1062.45 246.3 1060.77 248.88 1058.55 250.96C1056.32 253.04 1053.7 254.62 1050.67 255.68C1047.64 256.74 1044.25 257.28 1040.51 257.28C1034.92 257.28 1030.05 256.09 1025.88 253.69C1021.71 251.3 1018.47 247.84 1016.15 243.32C1013.91 238.95 1012.76 233.73 1012.68 227.66H1088.66V219.78C1088.66 210.22 1087.33 201.97 1084.68 195.03C1082.03 188.09 1078.39 182.38 1073.78 177.88H1073.79ZM1012.73 210.33C1012.98 206.06 1014.08 202.09 1016.05 198.43C1018.25 194.34 1021.34 191.02 1025.32 188.49C1029.3 185.96 1033.91 184.69 1039.17 184.69C1044.09 184.69 1048.41 185.8 1052.13 188.03C1055.85 190.26 1058.75 193.3 1060.83 197.16C1062.91 201.02 1063.98 205.41 1064.03 210.33H1012.74H1012.73Z" fill="white"/>
<path d="M1152.28 212.96L1133.67 208.98C1128.13 207.7 1124.16 206.07 1121.77 204.08C1119.38 202.09 1118.21 199.51 1118.25 196.34C1118.2 192.65 1119.99 189.64 1123.61 187.32C1127.23 185 1131.72 183.84 1137.07 183.84C1141.05 183.84 1144.41 184.48 1147.16 185.76C1149.91 187.04 1152.1 188.72 1153.73 190.8C1155.36 192.88 1156.51 195.11 1157.17 197.48L1180.61 194.92C1178.86 185.64 1174.3 178.28 1166.94 172.83C1159.58 167.39 1149.5 164.66 1136.72 164.66C1128.01 164.66 1120.32 166.02 1113.67 168.74C1107.02 171.46 1101.83 175.3 1098.12 180.25C1094.4 185.2 1092.57 191.03 1092.62 197.76C1092.57 205.71 1095.06 212.28 1100.08 217.47C1105.1 222.66 1112.84 226.34 1123.3 228.51L1141.91 232.42C1146.93 233.51 1150.63 235.07 1153.03 237.11C1155.42 239.15 1156.62 241.73 1156.62 244.85C1156.62 248.54 1154.76 251.64 1151.04 254.15C1147.32 256.66 1142.41 257.91 1136.3 257.91C1130.19 257.91 1125.58 256.66 1121.88 254.15C1118.19 251.64 1115.77 247.92 1114.64 243L1089.57 245.42C1091.13 255.46 1095.99 263.28 1104.13 268.89C1112.27 274.5 1123.02 277.31 1136.37 277.31C1145.46 277.31 1153.51 275.84 1160.52 272.91C1167.53 269.97 1173.01 265.89 1176.96 260.66C1180.91 255.43 1182.91 249.38 1182.96 242.51C1182.91 234.7 1180.37 228.38 1175.33 223.55C1170.29 218.72 1162.6 215.19 1152.28 212.97V212.96Z" fill="white"/>
<path d="M1246.08 212.96L1227.47 208.98C1221.93 207.7 1217.96 206.07 1215.57 204.08C1213.18 202.09 1212.01 199.51 1212.05 196.34C1212 192.65 1213.79 189.64 1217.41 187.32C1221.03 185 1225.52 183.84 1230.87 183.84C1234.85 183.84 1238.21 184.48 1240.96 185.76C1243.71 187.04 1245.9 188.72 1247.53 190.8C1249.16 192.88 1250.31 195.11 1250.97 197.48L1274.41 194.92C1272.66 185.64 1268.1 178.28 1260.74 172.83C1253.38 167.39 1243.3 164.66 1230.52 164.66C1221.81 164.66 1214.12 166.02 1207.47 168.74C1200.82 171.46 1195.63 175.3 1191.92 180.25C1188.2 185.2 1186.37 191.03 1186.42 197.76C1186.37 205.71 1188.86 212.28 1193.88 217.47C1198.9 222.66 1206.64 226.34 1217.1 228.51L1235.71 232.42C1240.73 233.51 1244.43 235.07 1246.83 237.11C1249.22 239.15 1250.42 241.73 1250.42 244.85C1250.42 248.54 1248.56 251.64 1244.84 254.15C1241.12 256.66 1236.21 257.91 1230.1 257.91C1223.99 257.91 1219.38 256.66 1215.68 254.15C1211.99 251.64 1209.57 247.92 1208.44 243L1183.37 245.42C1184.93 255.46 1189.79 263.28 1197.93 268.89C1206.07 274.5 1216.82 277.31 1230.17 277.31C1239.26 277.31 1247.31 275.84 1254.32 272.91C1261.33 269.97 1266.81 265.89 1270.76 260.66C1274.71 255.43 1276.71 249.38 1276.76 242.51C1276.71 234.7 1274.17 228.38 1269.13 223.55C1264.09 218.72 1256.4 215.19 1246.08 212.97V212.96Z" fill="white"/>
<path d="M1236.76 0H572C487.91 0 415.51 52.6 386.07 126.52C356.78 52.42 284.52 0 200 0C89.55 0 0 89.54 0 200C0 310.46 89.55 400 200 400C284.52 400 356.78 347.58 386.07 273.48C415.51 347.4 487.91 400 572 400H1236.76C1346.76 400 1436.76 310 1436.76 200C1436.76 90 1346.76 0 1236.76 0ZM278.26 247.51C271.7 250.22 264.92 251.55 258.26 251.55C245.02 251.55 232.19 246.32 222.22 236.36L200 214.14L177.78 236.36C162.8 251.34 141.33 255.62 121.75 247.51C102.17 239.4 90 221.19 90 200C90 178.81 102.17 160.6 121.75 152.49C141.33 144.38 162.8 148.65 177.78 163.64L200 185.86L222.22 163.64C237.21 148.65 258.68 144.38 278.26 152.49C297.84 160.6 310 178.81 310 200C310 221.19 297.84 239.4 278.26 247.51ZM1395.21 266.71C1386.51 287.18 1374.06 305.6 1358.21 321.45C1342.36 337.3 1323.94 349.75 1303.47 358.45C1282.3 367.44 1259.86 372 1236.76 372H572C548.9 372 526.46 367.44 505.29 358.45C484.82 349.75 466.4 337.3 450.55 321.45C434.7 305.6 422.25 287.18 413.55 266.71C404.56 245.54 400 223.1 400 200C400 176.9 404.56 154.46 413.55 133.29C422.25 112.82 434.7 94.4 450.55 78.55C466.4 62.7 484.82 50.25 505.29 41.55C526.46 32.56 548.9 28 572 28H1236.76C1259.86 28 1282.3 32.56 1303.47 41.55C1323.94 50.25 1342.36 62.7 1358.21 78.55C1374.06 94.4 1386.51 112.82 1395.21 133.29C1404.2 154.46 1408.76 176.9 1408.76 200C1408.76 223.1 1404.2 245.54 1395.21 266.71Z" fill="#0A84FF"/>
<path d="M141.73 168.53C137.23 168.53 132.99 169.48 129.4 170.97C120.02 174.85 110 184.52 110 200C110 215.48 120.02 225.14 129.4 229.03C138.78 232.91 152.7 233.16 163.64 222.22L185.86 200L163.64 177.78C156.88 171.02 148.99 168.53 141.73 168.53Z" fill="#0A84FF"/>
<path d="M270.61 170.97C261.23 167.08 247.31 166.83 236.36 177.78L214.14 200L236.36 222.22C247.31 233.16 261.23 232.91 270.61 229.03C279.98 225.14 290 215.48 290 200C290 184.52 279.98 174.85 270.61 170.97Z" fill="#0A84FF"/>
<path d="M200 402.45C310.457 402.45 400 312.907 400 202.45C400 91.9932 310.457 2.4502 200 2.4502C89.5431 2.4502 0 91.9932 0 202.45C0 312.907 89.5431 402.45 200 402.45Z" fill="#0A84FF"/>
<path d="M258.26 254C245.02 254 232.19 248.77 222.23 238.81L200.01 216.59L177.79 238.81C162.8 253.8 141.33 258.07 121.75 249.96C102.17 241.85 90.0098 223.65 90.0098 202.45C90.0098 181.25 102.17 163.05 121.75 154.94C141.33 146.83 162.8 151.1 177.79 166.09L200.01 188.31L222.23 166.09C237.22 151.1 258.69 146.83 278.27 154.94C297.85 163.05 310.01 181.25 310.01 202.45C310.01 223.65 297.85 241.85 278.27 249.96C271.71 252.68 264.94 254 258.27 254H258.26ZM141.73 170.98C137.24 170.98 132.99 171.93 129.4 173.42C120.02 177.3 110 186.97 110 202.45C110 217.93 120.02 227.6 129.4 231.48C138.78 235.36 152.7 235.61 163.64 224.67L185.86 202.45L163.64 180.23C156.88 173.47 148.98 170.98 141.73 170.98ZM214.15 202.45L236.37 224.67C247.32 235.62 261.24 235.37 270.61 231.48C279.99 227.6 290.01 217.93 290.01 202.45C290.01 186.97 279.99 177.3 270.61 173.42C261.23 169.54 247.31 169.29 236.37 180.23L214.15 202.45Z" fill="white"/>
</g>
<defs>
<clipPath id="clip0_874_46">
<rect width="1436.76" height="402.45" fill="white"/>
</clipPath>
</defs>
</svg>
