<svg width="1087" height="401" viewBox="0 0 1087 401" fill="none" xmlns="http://www.w3.org/2000/svg">
<g clip-path="url(#clip0_889_23)">
<path d="M578.021 154.87C584.131 150.92 591.14 148.94 599.04 148.94C603.49 148.94 607.64 149.54 611.5 150.75C615.36 151.96 618.801 153.75 621.831 156.11C624.861 158.48 627.39 161.36 629.43 164.74C631.47 168.13 632.86 172 633.62 176.35H660.18C659.09 168.25 656.78 161.05 653.26 154.72C649.73 148.4 645.25 143.05 639.8 138.67C634.35 134.29 628.15 130.96 621.19 128.69C614.23 126.42 606.7 125.28 598.6 125.28C585.91 125.28 574.55 128.24 564.51 134.16C554.47 140.08 546.54 148.61 540.72 159.76C534.9 170.91 531.98 184.32 531.98 199.99C531.98 215.66 534.871 229.01 540.651 240.19C546.431 251.36 554.33 259.91 564.37 265.83C574.41 271.75 585.82 274.71 598.6 274.71C607.27 274.71 615.15 273.42 622.25 270.84C629.35 268.26 635.55 264.66 640.86 260.04C646.16 255.42 650.46 250.09 653.75 244.02C657.04 237.96 659.18 231.47 660.18 224.56L633.62 224.42C632.81 228.68 631.36 232.47 629.25 235.78C627.14 239.09 624.56 241.89 621.51 244.16C618.46 246.43 615.021 248.15 611.211 249.31C607.401 250.47 603.311 251.05 598.961 251.05C591.101 251.05 584.13 249.12 578.04 245.26C571.96 241.4 567.17 235.67 563.69 228.07C560.21 220.47 558.47 211.11 558.47 199.98C558.47 188.85 560.201 179.77 563.651 172.17C567.101 164.57 571.89 158.79 578 154.84L578.021 154.87Z" fill="white"/>
<path d="M692.99 127.28H667.28V272.73H692.99V127.28Z" fill="white"/>
<path d="M772.94 226.85C772.94 232.39 771.79 237 769.5 240.66C767.2 244.33 764.28 247.09 760.73 248.93C757.18 250.78 753.51 251.7 749.72 251.7C743.56 251.7 738.59 249.66 734.81 245.59C731.02 241.52 729.13 236.03 729.13 229.11V163.63H703.42V233.09C703.42 241.8 704.96 249.22 708.04 255.36C711.12 261.49 715.39 266.16 720.86 269.35C726.33 272.55 732.64 274.14 739.79 274.14C747.98 274.14 754.88 272.2 760.49 268.32C766.1 264.44 770.14 259.44 772.6 253.33H773.74V272.72H798.67V163.63H772.96V226.84L772.94 226.85Z" fill="white"/>
<path d="M890.99 168.65C884.2 164.37 876.58 162.22 868.16 162.22C861.77 162.22 856.51 163.3 852.39 165.45C848.27 167.61 845 170.19 842.59 173.19C840.17 176.2 838.3 179.03 836.98 181.68H835.91V127.28H810.2V272.73H835.48V255.54H836.97C838.34 258.19 840.27 261 842.76 263.96C845.25 266.92 848.55 269.44 852.67 271.52C856.79 273.6 861.97 274.64 868.22 274.64C876.79 274.64 884.46 272.44 891.23 268.03C898 263.63 903.35 257.24 907.28 248.85C911.21 240.47 913.17 230.29 913.17 218.31C913.17 206.33 911.17 195.95 907.17 187.59C903.17 179.23 897.77 172.91 890.98 168.63L890.99 168.65ZM884.03 236.41C882.06 241.74 879.16 245.93 875.33 248.98C871.5 252.03 866.74 253.56 861.05 253.56C855.36 253.56 850.98 252.08 847.16 249.12C843.35 246.16 840.44 242.03 838.42 236.73C836.41 231.43 835.4 225.25 835.4 218.19C835.4 211.13 836.38 205 838.35 199.79C840.31 194.58 843.22 190.53 847.05 187.65C850.89 184.76 855.55 183.32 861.04 183.32C866.53 183.32 871.55 184.81 875.39 187.79C879.22 190.77 882.11 194.89 884.05 200.15C885.99 205.41 886.96 211.42 886.96 218.19C886.96 224.96 885.98 231.08 884.01 236.41H884.03Z" fill="white"/>
<path d="M886.64 0H572C487.91 0 415.51 52.6 386.07 126.52C356.78 52.42 284.52 0 200 0C89.55 0 0 89.55 0 200.01C0 310.47 89.55 400.01 200 400.01C284.51 400.01 356.78 347.59 386.07 273.49C415.51 347.41 487.91 400.01 572 400.01H886.64C996.64 400.01 1086.64 310.01 1086.64 200.01C1086.64 90.01 996.64 0 886.64 0ZM278.26 247.52C271.7 250.23 264.92 251.56 258.26 251.56C245.02 251.56 232.19 246.33 222.22 236.37L200 214.15L177.78 236.37C162.8 251.35 141.33 255.63 121.75 247.52C102.17 239.41 90 221.2 90 200.01C90 178.82 102.17 160.61 121.75 152.5C141.33 144.39 162.8 148.66 177.78 163.65L200 185.87L222.22 163.65C237.21 148.66 258.68 144.39 278.26 152.5C297.84 160.61 310 178.82 310 200.01C310 221.2 297.84 239.41 278.26 247.52ZM1045.09 266.71C1036.39 287.18 1023.94 305.6 1008.09 321.45C992.24 337.3 973.82 349.75 953.35 358.45C932.18 367.44 909.74 372 886.64 372H572C548.9 372 526.46 367.44 505.29 358.45C484.82 349.75 466.4 337.3 450.55 321.45C434.7 305.6 422.25 287.18 413.55 266.71C404.56 245.54 400 223.1 400 200C400 176.9 404.56 154.46 413.55 133.29C422.25 112.82 434.7 94.4 450.55 78.55C466.4 62.7 484.82 50.25 505.29 41.55C526.46 32.56 548.9 28 572 28H886.64C909.74 28 932.18 32.56 953.35 41.55C973.82 50.25 992.24 62.7 1008.09 78.55C1023.94 94.4 1036.39 112.82 1045.09 133.29C1054.08 154.46 1058.64 176.9 1058.64 200C1058.64 223.1 1054.08 245.54 1045.09 266.71Z" fill="#64D2FF"/>
<path d="M141.73 168.54C137.23 168.54 132.99 169.49 129.4 170.98C120.02 174.86 110 184.53 110 200.01C110 215.49 120.02 225.15 129.4 229.04C138.78 232.92 152.7 233.17 163.64 222.23L185.86 200.01L163.64 177.79C156.88 171.03 148.99 168.54 141.73 168.54Z" fill="#64D2FF"/>
<path d="M270.61 170.98C261.23 167.09 247.31 166.84 236.36 177.79L214.14 200.01L236.36 222.23C247.31 233.17 261.23 232.92 270.61 229.04C279.98 225.15 290 215.49 290 200.01C290 184.53 279.98 174.86 270.61 170.98Z" fill="#64D2FF"/>
<path d="M200.04 400C310.497 400 400.04 310.457 400.04 200C400.04 89.5431 310.497 0 200.04 0C89.5831 0 0.0400391 89.5431 0.0400391 200C0.0400391 310.457 89.5831 400 200.04 400Z" fill="#64D2FF"/>
<path d="M258.3 251.55C245.06 251.55 232.23 246.32 222.27 236.36L200.05 214.14L177.83 236.36C162.84 251.35 141.37 255.62 121.79 247.51C102.21 239.4 90.0498 221.2 90.0498 200C90.0498 178.8 102.21 160.6 121.79 152.49C141.37 144.38 162.84 148.65 177.83 163.64L200.05 185.86L222.27 163.64C237.26 148.65 258.73 144.38 278.31 152.49C297.89 160.6 310.05 178.8 310.05 200C310.05 221.2 297.89 239.4 278.31 247.51C271.75 250.23 264.98 251.55 258.31 251.55H258.3ZM141.77 168.53C137.28 168.53 133.03 169.48 129.44 170.97C120.06 174.85 110.04 184.52 110.04 200C110.04 215.48 120.06 225.15 129.44 229.03C138.82 232.91 152.74 233.16 163.68 222.22L185.9 200L163.68 177.78C156.92 171.02 149.02 168.53 141.77 168.53ZM214.19 200L236.41 222.22C247.36 233.17 261.28 232.92 270.65 229.03C280.03 225.15 290.05 215.48 290.05 200C290.05 184.52 280.03 174.85 270.65 170.97C261.27 167.09 247.35 166.84 236.41 177.78L214.19 200Z" fill="white"/>
</g>
<defs>
<clipPath id="clip0_889_23">
<rect width="1086.64" height="400.01" fill="white"/>
</clipPath>
</defs>
</svg>
