<svg width="418" height="128" viewBox="0 0 418 128" fill="none" xmlns="http://www.w3.org/2000/svg">
<g clip-path="url(#clip0_1398_52)">
<path d="M195.455 74.2505H194.913L181.145 40.6182H170.867V87.0345H178.926V55.0776H179.356L192.171 86.8973H198.193L211.008 55.1446H211.439V87.0345H219.501V40.6182H209.22L195.455 74.2505Z" fill="white"/>
<path d="M246.979 54.2955C245.605 53.3956 244.087 52.751 242.427 52.3584C240.766 51.9659 239.099 51.7681 237.422 51.7681C234.993 51.7681 232.774 52.1255 230.766 52.8435C228.757 53.5615 227.061 54.6338 225.671 56.0603C224.282 57.4867 223.287 59.2611 222.681 61.3737L230.335 62.4619C230.743 61.2683 231.531 60.2344 232.701 59.3568C233.87 58.4792 235.458 58.042 237.466 58.042C239.369 58.042 240.826 58.5111 241.837 59.4462C242.847 60.3844 243.354 61.7055 243.354 63.4128V63.5501C243.354 64.3351 243.064 64.9127 242.484 65.2829C241.904 65.6531 240.979 65.9243 239.711 66.0999C238.442 66.2722 236.791 66.4668 234.753 66.6775C233.064 66.8594 231.429 67.1498 229.851 67.5487C228.273 67.9476 226.857 68.5348 225.604 69.3038C224.352 70.0729 223.363 71.1005 222.64 72.3866C221.916 73.6726 221.553 75.297 221.553 77.2596C221.553 79.5413 222.063 81.4592 223.08 83.0165C224.1 84.5739 225.487 85.7482 227.246 86.5396C229.006 87.3343 230.986 87.73 233.188 87.73C234.999 87.73 236.58 87.4779 237.932 86.9705C239.283 86.4631 240.406 85.7929 241.304 84.9536C242.203 84.1143 242.902 83.2112 243.399 82.2443H243.67V87.0279H251.55V63.7288C251.55 61.4183 251.133 59.4908 250.294 57.9495C249.456 56.4081 248.35 55.1891 246.979 54.2891V54.2955ZM243.38 74.547C243.38 75.8299 243.051 77.017 242.395 78.1052C241.738 79.1934 240.807 80.0647 239.599 80.722C238.391 81.3794 236.966 81.7081 235.321 81.7081C233.676 81.7081 232.213 81.322 231.11 80.5529C230.007 79.7838 229.459 78.6414 229.459 77.1319C229.459 76.0756 229.739 75.2108 230.297 74.5375C230.855 73.8641 231.617 73.3407 232.583 72.961C233.549 72.5844 234.642 72.31 235.866 72.144C236.408 72.0674 237.052 71.9781 237.792 71.8728C238.531 71.7675 239.277 71.6462 240.033 71.509C240.788 71.3718 241.47 71.2154 242.082 71.0335C242.694 70.8516 243.128 70.6569 243.383 70.4431V74.547H243.38Z" fill="white"/>
<path d="M285.553 52.2215H275.976L263.477 66.2054H262.913V40.6182H254.717V87.0345H262.913V75.3323L265.893 72.1315L276.541 87.0345H286.346L272.071 67.2489L285.553 52.2215Z" fill="white"/>
<path d="M312.002 55.9837C310.53 54.5476 308.84 53.4881 306.93 52.7988C305.021 52.1127 302.994 51.7681 300.851 51.7681C297.53 51.7681 294.641 52.5276 292.18 54.0466C289.719 55.5656 287.807 57.6814 286.442 60.3939C285.075 63.1065 284.393 66.253 284.393 69.8336C284.393 73.4141 285.072 76.6373 286.43 79.3179C287.788 81.9985 289.732 84.0696 292.26 85.528C294.788 86.9864 297.797 87.714 301.282 87.714C303.982 87.714 306.382 87.3023 308.48 86.479C310.577 85.6557 312.302 84.4909 313.654 82.9878C315.005 81.4847 315.92 79.72 316.405 77.6968L308.751 76.8351C308.387 77.818 307.852 78.6414 307.144 79.3051C306.433 79.9689 305.598 80.4731 304.632 80.8114C303.666 81.1497 302.585 81.322 301.393 81.322C299.611 81.322 298.059 80.9422 296.729 80.1763C295.4 79.4136 294.367 78.3095 293.628 76.867C292.914 75.4725 292.547 73.8067 292.522 71.8696H316.743V69.3549C316.743 66.3041 316.319 63.6713 315.474 61.4566C314.629 59.2419 313.469 57.4197 311.999 55.9837H312.002ZM292.537 66.3424C292.617 64.9797 292.968 63.7128 293.593 62.5448C294.294 61.2396 295.279 60.1801 296.548 59.3728C297.816 58.5654 299.286 58.1601 300.963 58.1601C302.531 58.1601 303.908 58.5143 305.094 59.226C306.28 59.9376 307.205 60.9077 307.868 62.1395C308.531 63.3714 308.872 64.7723 308.888 66.3424H292.537Z" fill="white"/>
<path d="M357.212 67.1783L351.279 65.9082C349.513 65.4997 348.247 64.9795 347.486 64.3445C346.724 63.7094 346.351 62.8861 346.363 61.8744C346.347 60.6969 346.918 59.7363 348.072 58.996C349.226 58.2556 350.657 57.8854 352.363 57.8854C353.632 57.8854 354.703 58.0897 355.579 58.4981C356.456 58.9066 357.154 59.4427 357.674 60.1065C358.193 60.7703 358.56 61.4819 358.77 62.2382L366.243 61.4213C365.685 58.4598 364.231 56.1111 361.885 54.3719C359.539 52.6359 356.325 51.7646 352.251 51.7646C349.475 51.7646 347.023 52.1987 344.903 53.0667C342.783 53.9347 341.129 55.1601 339.946 56.7398C338.76 58.3194 338.177 60.1799 338.193 62.3276C338.177 64.8646 338.971 66.9613 340.571 68.6175C342.171 70.2737 344.639 71.4481 347.973 72.1406L353.906 73.3884C355.506 73.7362 356.686 74.2341 357.451 74.8851C358.213 75.5361 358.595 76.3594 358.595 77.3551C358.595 78.5326 358.002 79.5219 356.816 80.3229C355.63 81.1239 354.065 81.5228 352.117 81.5228C350.17 81.5228 348.7 81.1239 347.521 80.3229C346.344 79.5219 345.573 78.3348 345.213 76.7647L337.221 77.537C337.718 80.741 339.267 83.2365 341.862 85.0268C344.457 86.8171 347.884 87.7138 352.14 87.7138C355.037 87.7138 357.604 87.2447 359.838 86.3096C362.073 85.3714 363.82 84.0694 365.079 82.4004C366.338 80.7314 366.976 78.8007 366.992 76.6083C366.976 74.116 366.166 72.0991 364.559 70.5578C362.953 69.0164 360.501 67.8899 357.212 67.1815V67.1783Z" fill="white"/>
<path d="M330.154 53.3667C328.608 54.4613 327.517 56.0154 326.883 58.0259H326.52V52.2242H318.572V87.0373H326.768V66.5719C326.768 65.0912 327.109 63.7828 327.788 62.6499C328.467 61.5171 329.398 60.6299 330.584 59.9853C331.77 59.3438 333.023 59.0215 334.604 59.0215C335.299 59.0215 336.246 59.0694 336.991 59.1683V52.221C336.424 52.1827 335.917 52.1636 335.465 52.1636C333.472 52.1636 331.703 52.2689 330.157 53.3635L330.154 53.3667Z" fill="white"/>
<path d="M354.244 0.351074H182.343C155.537 0.351074 132.457 17.1369 123.072 40.7264C113.735 17.0795 90.6999 0.351074 63.7564 0.351074C28.5469 0.351074 0 28.9253 0 64.1756C0 99.4258 28.5469 128 63.7564 128C90.6999 128 113.735 111.272 123.072 87.6247C132.457 111.214 155.537 128 182.343 128H354.244C389.31 128 418 99.279 418 64.1756C418 29.0721 389.31 0.351074 354.244 0.351074ZM88.7043 79.3371C86.6131 80.2019 84.4518 80.6263 82.3287 80.6263C78.108 80.6263 74.018 78.9573 70.8398 75.7788L63.7564 68.6879L56.6731 75.7788C51.8977 80.5593 45.0535 81.9251 38.8117 79.3371C32.57 76.749 28.6904 70.9378 28.6904 64.1756C28.6904 57.4134 32.57 51.6021 38.8117 49.014C45.0535 46.426 51.8977 47.7886 56.6731 52.5723L63.7564 59.6632L70.8398 52.5723C75.6183 47.7886 82.4626 46.426 88.7043 49.014C94.9461 51.6021 98.8225 57.4134 98.8225 64.1756C98.8225 70.9378 94.9461 76.749 88.7043 79.3371ZM404.751 85.4642C401.978 91.9966 398.009 97.8749 392.956 102.933C387.904 107.991 382.032 111.964 375.506 114.74C368.758 117.609 361.604 119.065 354.24 119.065H182.34C174.976 119.065 167.823 117.609 161.074 114.74C154.549 111.964 148.677 107.991 143.624 102.933C138.571 97.8749 134.603 91.9966 131.829 85.4642C128.963 78.7084 127.51 71.5473 127.51 64.1756C127.51 56.8038 128.963 49.6427 131.829 42.8869C134.603 36.3545 138.571 30.4762 143.624 25.4181C148.677 20.36 154.549 16.387 161.074 13.6106C167.823 10.7417 174.976 9.2865 182.34 9.2865H354.24C361.604 9.2865 368.758 10.7417 375.506 13.6106C382.032 16.387 387.904 20.36 392.956 25.4181C398.009 30.4762 401.978 36.3545 404.751 42.8869C407.617 49.6427 409.071 56.8038 409.071 64.1756C409.071 71.5473 407.617 78.7084 404.751 85.4642Z" fill="#5E5CE6"/>
<path d="M45.1814 54.1328C43.7468 54.1328 42.3952 54.436 41.2508 54.9115C38.2606 56.1497 35.0664 59.2356 35.0664 64.1756C35.0664 69.1156 38.2606 72.1983 41.2508 73.4397C44.241 74.6779 48.6784 74.7577 52.1659 71.2665L59.2492 64.1756L52.1659 57.0847C50.0109 54.9274 47.4957 54.1328 45.1814 54.1328Z" fill="#5E5CE6"/>
<path d="M86.2653 54.9115C83.2751 53.6701 78.8377 53.5903 75.347 57.0847L68.2637 64.1756L75.347 71.2665C78.8377 74.7577 83.2751 74.6779 86.2653 73.4397C89.2523 72.1983 92.4465 69.1156 92.4465 64.1756C92.4465 59.2356 89.2523 56.1497 86.2653 54.9115Z" fill="#5E5CE6"/>
<path d="M63.7701 127.649C98.9818 127.649 127.527 99.0738 127.527 63.8245C127.527 28.5752 98.9818 0 63.7701 0C28.5584 0 0.0136719 28.5752 0.0136719 63.8245C0.0136719 99.0738 28.5584 127.649 63.7701 127.649Z" fill="#5E5CE6"/>
<path d="M82.3421 80.2752C78.1215 80.2752 74.0315 78.6062 70.8564 75.4277L63.7731 68.3368L56.6897 75.4277C51.9112 80.2113 45.0669 81.574 38.8252 78.9859C32.5834 76.3978 28.707 70.5898 28.707 63.8244C28.707 57.059 32.5834 51.251 38.8252 48.6629C45.0669 46.0748 51.9112 47.4375 56.6897 52.2211L63.7731 59.312L70.8564 52.2211C75.635 47.4375 82.4792 46.0748 88.721 48.6629C94.9627 51.251 98.8391 57.059 98.8391 63.8244C98.8391 70.5898 94.9627 76.3978 88.721 78.9859C86.6298 79.8539 84.4716 80.2752 82.3453 80.2752H82.3421ZM45.1944 53.7816C43.7631 53.7816 42.4083 54.0848 41.2639 54.5603C38.2737 55.7985 35.0795 58.8844 35.0795 63.8244C35.0795 68.7644 38.2737 71.8503 41.2639 73.0885C44.254 74.3267 48.6915 74.4065 52.179 70.9153L59.2623 63.8244L52.179 56.7335C50.024 54.5762 47.5056 53.7816 45.1944 53.7816ZM68.2807 63.8244L75.364 70.9153C78.8547 74.4097 83.2921 74.3299 86.2791 73.0885C89.2693 71.8503 92.4635 68.7644 92.4635 63.8244C92.4635 58.8844 89.2693 55.7985 86.2791 54.5603C83.2889 53.3221 78.8515 53.2423 75.364 56.7335L68.2807 63.8244Z" fill="white"/>
</g>
<defs>
<clipPath id="clip0_1398_52">
<rect width="418" height="128" fill="white"/>
</clipPath>
</defs>
</svg>
