<svg width="760" height="224" viewBox="0 0 760 224" fill="none" xmlns="http://www.w3.org/2000/svg">
<g clip-path="url(#clip0_924_267)">
<path d="M120.451 72.626L91.7891 154.078H107.528L114.261 133.991H144.865L151.609 154.078H167.347L138.646 72.626H120.44H120.451ZM118.235 122.141L129.232 89.3308H129.87L140.891 122.141H118.235Z" fill="#FF2D55"/>
<path d="M182.885 92.9883H168.495V154.079H182.885V92.9883Z" fill="#FF2D55"/>
<path d="M175.732 68.6895C173.454 68.6895 171.489 69.451 169.849 70.9742C168.204 72.4974 167.387 74.3343 167.387 76.4847C167.387 78.6351 168.209 80.4774 169.849 82.0118C171.495 83.5518 173.454 84.3191 175.732 84.3191C178.01 84.3191 180.002 83.5575 181.636 82.0343C183.265 80.5111 184.082 78.6742 184.082 76.5238C184.082 74.3734 183.265 72.5311 181.636 70.9967C180.008 69.4567 178.038 68.6895 175.732 68.6895Z" fill="#FF2D55"/>
<path d="M243.835 76.4845C238.204 73.1693 231.824 71.5117 224.693 71.5117C217.563 71.5117 211.182 73.1693 205.552 76.4845C199.921 79.7997 195.466 84.5765 192.198 90.8205C188.923 97.0645 187.289 104.574 187.289 113.349C187.289 122.125 188.923 129.595 192.198 135.839C195.472 142.083 199.921 146.871 205.552 150.197C211.182 153.524 217.563 155.187 224.693 155.187C231.824 155.187 238.199 153.529 243.835 150.214C249.465 146.899 253.92 142.122 257.189 135.878C260.463 129.634 262.097 122.125 262.097 113.349C262.097 104.574 260.463 97.0645 257.189 90.8205C253.915 84.5765 249.465 79.7997 243.835 76.4845ZM244.389 129.001C242.469 133.257 239.811 136.477 236.419 138.667C233.027 140.857 229.12 141.949 224.693 141.949C220.266 141.949 216.359 140.857 212.968 138.667C209.576 136.477 206.917 133.257 204.998 129.001C203.078 124.745 202.115 119.532 202.115 113.349C202.115 107.167 203.078 101.953 204.998 97.6973C206.917 93.4413 209.576 90.2213 212.968 88.0317C216.359 85.8421 220.266 84.7501 224.693 84.7501C229.12 84.7501 233.027 85.8421 236.419 88.0317C239.811 90.2213 242.469 93.4413 244.389 97.6973C246.309 101.953 247.271 107.173 247.271 113.349C247.271 119.526 246.309 124.745 244.389 129.001Z" fill="#FF2D55"/>
<path d="M319.309 115.259C317.043 113.406 314.485 111.866 311.636 110.645C308.787 109.424 305.826 108.455 302.754 107.739L295.119 105.829C293.452 105.431 291.795 104.939 290.149 104.356C288.504 103.774 287.01 103.051 285.655 102.189C284.306 101.327 283.237 100.274 282.454 99.025C281.67 97.7762 281.278 96.309 281.278 94.6122C281.306 92.5682 281.9 90.7538 283.069 89.1634C284.233 87.573 285.918 86.313 288.118 85.3834C290.317 84.4538 292.953 83.989 296.026 83.989C300.397 83.989 303.957 84.9578 306.699 86.8898C309.442 88.8274 310.998 91.5322 311.367 95.0042H325.561C325.483 90.4178 324.195 86.3522 321.705 82.813C319.214 79.2738 315.789 76.5018 311.429 74.5026C307.069 72.5034 302.004 71.501 296.222 71.501C290.44 71.501 285.426 72.5034 280.92 74.5026C276.415 76.5074 272.855 79.3074 270.247 82.9138C267.639 86.5202 266.329 90.7202 266.329 95.5194C266.329 101.355 268.271 106.025 272.155 109.542C276.04 113.053 281.329 115.674 288.034 117.399L297.297 119.784C300.213 120.529 302.765 121.369 304.948 122.31C307.136 123.251 308.837 124.415 310.052 125.81C311.272 127.204 311.893 128.957 311.921 131.079C311.893 133.415 311.194 135.447 309.811 137.183C308.435 138.919 306.532 140.275 304.108 141.238C301.685 142.207 298.869 142.688 295.662 142.688C292.455 142.688 289.814 142.223 287.334 141.294C284.855 140.364 282.845 138.959 281.312 137.077C279.773 135.195 278.9 132.832 278.687 129.999H264.18C264.392 135.408 265.803 139.995 268.411 143.758C271.019 147.521 274.652 150.388 279.303 152.348C283.954 154.308 289.444 155.294 295.78 155.294C302.116 155.294 307.858 154.28 312.453 152.253C317.048 150.226 320.569 147.398 323.009 143.78C325.449 140.163 326.664 135.963 326.664 131.191C326.664 127.663 326.003 124.589 324.677 121.963C323.35 119.336 321.559 117.096 319.293 115.243L319.309 115.259Z" fill="#FF2D55"/>
<path d="M373.365 88.0763C376.785 85.8643 380.708 84.7555 385.13 84.7555C387.62 84.7555 389.949 85.0915 392.103 85.7691C394.264 86.4467 396.189 87.4491 397.885 88.7707C399.581 90.0979 400.997 91.7051 402.139 93.6035C403.28 95.5019 404.058 97.6691 404.484 100.105H419.349C418.739 95.5691 417.446 91.5315 415.476 87.9923C413.5 84.4531 410.987 81.4571 407.943 79.0043C404.892 76.5515 401.422 74.6867 397.527 73.4155C393.631 72.1443 389.417 71.5059 384.883 71.5059C377.781 71.5059 371.423 73.1635 365.803 76.4787C360.184 79.7939 355.746 84.5707 352.488 90.8147C349.231 97.0587 347.597 104.568 347.597 113.343C347.597 122.119 349.214 129.595 352.444 135.855C355.679 142.111 360.1 146.899 365.72 150.214C371.339 153.529 377.725 155.187 384.878 155.187C389.725 155.187 394.141 154.464 398.114 153.019C402.088 151.575 405.558 149.559 408.53 146.971C411.497 144.384 413.903 141.399 415.745 138C417.586 134.607 418.784 130.972 419.344 127.103L404.478 127.024C404.03 129.41 403.213 131.532 402.032 133.386C400.851 135.239 399.407 136.807 397.7 138.079C395.993 139.35 394.068 140.313 391.935 140.963C389.803 141.612 387.52 141.937 385.079 141.937C380.68 141.937 376.779 140.856 373.37 138.695C369.962 136.533 367.287 133.324 365.339 129.068C363.391 124.812 362.417 119.571 362.417 113.338C362.417 107.105 363.386 102.02 365.322 97.7643C367.259 93.5083 369.934 90.2715 373.354 88.0595L373.365 88.0763Z" fill="white"/>
<path d="M465.457 96.1292C461.085 93.5028 455.919 92.1924 449.953 92.1924C443.987 92.1924 438.821 93.5028 434.45 96.1292C430.078 98.7556 426.692 102.44 424.291 107.184C421.89 111.932 420.692 117.46 420.692 123.771C420.692 130.082 421.89 135.598 424.291 140.319C426.692 145.04 430.073 148.713 434.45 151.334C438.826 153.955 443.987 155.271 449.953 155.271C455.919 155.271 461.085 153.96 465.457 151.334C469.828 148.708 473.214 145.034 475.615 140.319C478.016 135.598 479.214 130.082 479.214 123.771C479.214 117.46 478.016 111.932 475.615 107.184C473.214 102.435 469.833 98.75 465.457 96.1292ZM463.011 133.834C461.936 136.858 460.313 139.26 458.141 141.052C455.97 142.844 453.266 143.735 450.031 143.735C446.796 143.735 443.97 142.839 441.782 141.052C439.593 139.26 437.964 136.858 436.895 133.834C435.821 130.81 435.284 127.444 435.284 123.732C435.284 120.019 435.821 116.608 436.895 113.568C437.97 110.532 439.599 108.113 441.782 106.31C443.97 104.507 446.718 103.605 450.031 103.605C453.345 103.605 455.97 104.507 458.141 106.31C460.313 108.113 461.936 110.532 463.011 113.568C464.085 116.603 464.623 119.991 464.623 123.732C464.623 127.472 464.085 130.81 463.011 133.834Z" fill="white"/>
<path d="M526.462 94.8587C523.311 93.0835 519.611 92.1931 515.375 92.1931C510.712 92.1931 506.873 93.1955 503.867 95.1947C500.856 97.1995 498.64 99.9211 497.207 103.365H496.491V72.6211H482.42V154.073H496.81V118.278C496.81 115.332 497.375 112.829 498.5 110.763C499.625 108.696 501.192 107.111 503.19 106.008C505.194 104.911 507.461 104.356 510.007 104.356C513.796 104.356 516.746 105.504 518.85 107.795C520.955 110.091 522.013 113.288 522.013 117.399V154.067H536.402V115.17C536.402 110.236 535.535 106.064 533.8 102.643C532.065 99.2211 529.619 96.6227 526.468 94.8475L526.462 94.8587Z" fill="white"/>
<path d="M584.206 96.1292C579.834 93.5028 574.668 92.1924 568.702 92.1924C562.736 92.1924 557.57 93.5028 553.199 96.1292C548.827 98.7556 545.441 102.44 543.04 107.184C540.639 111.932 539.441 117.46 539.441 123.771C539.441 130.082 540.639 135.598 543.04 140.319C545.441 145.04 548.822 148.713 553.199 151.334C557.575 153.955 562.736 155.271 568.702 155.271C574.668 155.271 579.829 153.96 584.206 151.334C588.582 148.708 591.963 145.034 594.364 140.319C596.765 135.598 597.963 130.082 597.963 123.771C597.963 117.46 596.765 111.932 594.364 107.184C591.963 102.435 588.582 98.75 584.206 96.1292ZM581.76 133.834C580.685 136.858 579.062 139.26 576.89 141.052C574.719 142.844 572.015 143.735 568.78 143.735C565.545 143.735 562.719 142.839 560.531 141.052C558.342 139.26 556.713 136.858 555.639 133.834C554.564 130.81 554.027 127.444 554.027 123.732C554.027 120.019 554.564 116.608 555.639 113.568C556.713 110.532 558.342 108.113 560.531 106.31C562.719 104.507 565.467 103.605 568.78 103.605C572.094 103.605 574.719 104.507 576.89 106.31C579.062 108.113 580.685 110.532 581.76 113.568C582.834 116.603 583.372 119.991 583.372 123.732C583.372 127.472 582.834 130.81 581.76 133.834Z" fill="white"/>
<path d="M628.293 92.9206C624.716 93.027 623.395 93.3966 620.681 95.3174C617.961 97.2382 616.869 99.6462 615.756 103.174H615.123V92.9878H601.17V154.084H615.56V118.165C615.56 115.567 616.158 113.277 617.351 111.283C618.543 109.295 620.177 107.738 622.259 106.613C624.336 105.487 625.6 105.162 628.153 104.552C629.49 104.233 631.662 103.969 632.904 104.126L633.089 92.9878C632.334 92.9486 629.087 92.8982 628.298 92.9206H628.293Z" fill="white"/>
<path d="M665.787 142.229C665.39 142.335 664.813 142.453 664.057 142.587C663.302 142.722 662.474 142.783 661.572 142.783C660.38 142.783 659.295 142.599 658.315 142.229C657.336 141.859 656.546 141.159 655.948 140.14C655.354 139.121 655.052 137.643 655.052 135.705V104.127H667.097V92.9883H655.052V78.3555H640.662V92.9883H635.983V104.127H640.662V138.091C640.64 141.91 641.468 145.091 643.147 147.639C644.832 150.181 647.116 152.063 650.009 153.267C652.897 154.471 656.143 155.025 659.748 154.919C661.785 154.863 663.515 154.678 664.931 154.359C666.352 154.039 667.444 153.748 668.21 153.485L665.787 142.229Z" fill="white"/>
<path d="M648.062 15.68C660.991 15.68 673.55 18.2336 685.399 23.268C696.856 28.14 707.165 35.112 716.036 43.988C724.907 52.864 731.876 63.1792 736.745 74.6424C741.776 86.4976 744.329 99.064 744.329 112C744.329 124.936 741.776 137.502 736.745 149.358C731.876 160.821 724.907 171.136 716.036 180.012C707.165 188.888 696.856 195.86 685.399 200.732C673.55 205.766 660.991 208.32 648.062 208.32H111.938C99.0095 208.32 86.45 205.766 74.6013 200.732C63.1444 195.86 52.8349 188.888 43.9638 180.012C35.0927 171.136 28.1245 160.821 23.2552 149.358C18.2236 137.502 15.6714 124.936 15.6714 112C15.6714 99.064 18.2236 86.4976 23.2552 74.6424C28.1245 63.1792 35.0927 52.864 43.9638 43.988C52.8349 35.112 63.1444 28.14 74.6013 23.268C86.45 18.2336 99.0095 15.68 111.938 15.68H648.067M648.062 0H111.938C50.3723 0 0 50.4 0 112C0 173.6 50.3723 224 111.938 224H648.067C709.633 224 760.006 173.6 760.006 112C760.006 50.4 709.633 0 648.067 0H648.062Z" fill="white"/>
</g>
<defs>
<clipPath id="clip0_924_267">
<rect width="760" height="224" fill="white"/>
</clipPath>
</defs>
</svg>
