<svg width="248" height="128" viewBox="0 0 248 128" fill="none" xmlns="http://www.w3.org/2000/svg">
<path d="M183.038 0C156.011 0 132.898 16.7548 123.516 40.4406C114.467 17.6188 92.6304 1.07837 66.5191 0.0511987C31.2016 -1.34077 1.44233 26.1625 0.0503677 61.4801C-1.3384 96.7976 26.1617 126.557 61.4824 127.949C89.3761 129.05 113.795 112.122 123.519 87.5626C132.905 111.248 156.014 128 183.041 128C218.387 128 247.039 99.3479 247.039 64.0016C247.039 28.6553 218.384 0 183.038 0ZM89.0433 79.2012C86.9442 80.0716 84.7747 80.4972 82.6403 80.4972C78.4036 80.4972 74.2981 78.8236 71.111 75.6333L64.0008 68.5263L56.8905 75.6333C52.0939 80.43 45.2236 81.7964 38.9582 79.2012C32.6927 76.6061 28.8016 70.7822 28.8016 63.9984C28.8016 57.2146 32.6927 51.3939 38.9582 48.7988C45.2236 46.2036 52.0939 47.57 56.8905 52.3635L64.0008 59.4737L71.111 52.3635C75.9045 47.57 82.7747 46.2036 89.0433 48.7988C95.3088 51.3939 99.1999 57.2178 99.1999 63.9984C99.1999 70.779 95.3088 76.6061 89.0433 79.2012ZM221.955 102.916C211.559 113.312 197.738 119.037 183.038 119.037C168.337 119.037 154.514 113.312 144.12 102.916C133.727 92.5193 127.999 78.6988 127.999 63.9984C127.999 49.298 133.724 35.4743 144.12 25.081C154.517 14.6844 168.337 8.95978 183.038 8.95978C197.738 8.95978 211.562 14.6844 221.955 25.081C232.352 35.4775 238.076 49.298 238.076 63.9984C238.076 78.6988 232.352 92.5225 221.955 102.916Z" fill="white"/>
<path d="M45.3518 53.9316C43.915 53.9316 42.5551 54.2356 41.4095 54.7092C38.408 55.954 35.2017 59.0451 35.2017 63.9986C35.2017 68.9521 38.408 72.0464 41.4095 73.288C44.4078 74.5327 48.8621 74.6127 52.366 71.1088L59.4762 63.9986L52.366 56.8916C50.2029 54.7284 47.6749 53.9316 45.3518 53.9316Z" fill="white"/>
<path d="M86.5921 54.709C83.5938 53.4674 79.1395 53.3874 75.6356 56.8913L68.5254 63.9984L75.6356 71.1086C79.1363 74.6125 83.5938 74.5325 86.5921 73.2877C89.5937 72.0462 92.8 68.9518 92.8 63.9984C92.8 59.0449 89.5937 55.9538 86.5921 54.709Z" fill="white"/>
<path d="M197.287 64.6703C195.764 63.7551 194.177 63.2496 192.525 63.16V62.7056C194.039 62.3408 195.412 61.7424 196.641 60.9104C197.866 60.0784 198.845 58.9905 199.572 57.6497C200.298 56.3089 200.663 54.693 200.663 52.7986C200.663 50.4947 200.106 48.4339 198.993 46.6164C197.879 44.7988 196.205 43.3621 193.969 42.3093C191.735 41.2565 188.935 40.7285 185.572 40.7285H167.755V87.2714H186.596C190.158 87.2714 193.111 86.7178 195.46 85.6138C197.809 84.5066 199.565 82.9963 200.733 81.0795C201.901 79.1628 202.484 76.9996 202.484 74.5901C202.484 72.1805 201.997 70.2126 201.028 68.5454C200.058 66.8783 198.813 65.5887 197.29 64.6703H197.287ZM176.187 47.6819H184.708C187.191 47.6819 189.066 48.2643 190.334 49.4323C191.597 50.6003 192.231 52.085 192.231 53.8866C192.231 55.2498 191.895 56.4273 191.22 57.4193C190.545 58.4113 189.626 59.1761 188.458 59.7136C187.29 60.2512 185.982 60.52 184.526 60.52H176.183V47.6787L176.187 47.6819ZM191.879 78.4652C190.522 79.6395 188.314 80.2251 185.255 80.2251H176.187V66.5903H185.482C187.223 66.5903 188.724 66.9135 189.982 67.5566C191.239 68.1998 192.209 69.0798 192.89 70.1934C193.572 71.307 193.914 72.5549 193.914 73.9309C193.914 75.7804 193.236 77.2908 191.879 78.4652Z" fill="white"/>
</svg>
